<svg id="Layer_1" enable-background="new 0 0 256 256" height="512" viewBox="0 0 256 256" width="512" xmlns="http://www.w3.org/2000/svg"><path d="m227 252h-198c-13.807 0-25-11.193-25-25v-198c0-13.807 11.193-25 25-25h198c13.807 0 25 11.193 25 25v198c0 13.807-11.193 25-25 25z" fill="#7bac51"/><path d="m227 4h-10c13.807 0 25 11.193 25 25v198c0 13.807-11.193 25-25 25h10c13.807 0 25-11.193 25-25v-198c0-13.807-11.193-25-25-25z" fill="#5d8e33"/><path d="m14 227v-198c0-13.807 11.193-25 25-25h-10c-13.807 0-25 11.193-25 25v198c0 13.807 11.193 25 25 25h10c-13.807 0-25-11.193-25-25z" fill="#99ca6f"/><path d="m227 254h-198c-14.888 0-27-12.112-27-27v-198c0-14.888 12.112-27 27-27h198c14.888 0 27 12.112 27 27v198c0 14.888-12.112 27-27 27zm-198-248c-12.683 0-23 10.318-23 23v198c0 12.682 10.317 23 23 23h198c12.683 0 23-10.318 23-23v-198c0-12.682-10.317-23-23-23z" fill="#690589"/><path d="m14 74c-1.104 0-2-.896-2-2v-12c0-1.104.896-2 2-2s2 .896 2 2v12c0 1.104-.896 2-2 2z" fill="#690589"/><path d="m89.533 56.368c-.676 0-1.334-.342-1.711-.961l-9.488-15.603c-.574-.944-.274-2.174.67-2.748s2.174-.273 2.748.67l9.488 15.603c.574.944.274 2.174-.67 2.748-.324.196-.683.291-1.037.291z" fill="#690589"/><path d="m167.316 56.368c-.354 0-.713-.094-1.037-.292-.944-.574-1.244-1.804-.67-2.748l9.488-15.603c.574-.944 1.805-1.244 2.748-.67.944.574 1.244 1.804.67 2.748l-9.488 15.603c-.377.619-1.035.962-1.711.962z" fill="#690589"/><path d="m128.052 31.658c-29.101 0-52.692 23.591-52.692 52.692v.863h105.384v-.863c0-29.101-23.591-52.692-52.692-52.692z" fill="#f4efed"/><path d="m75.36 94.913v79.339c0 4.906 3.977 8.884 8.884 8.884h5.522v29.55c0 6.438 5.218 11.656 11.656 11.656s11.656-5.218 11.656-11.656v-29.55h29.994v29.55c0 6.438 5.219 11.656 11.656 11.656 6.437 0 11.656-5.218 11.656-11.656v-29.55h5.476c4.906 0 8.884-3.978 8.884-8.884v-79.339z" fill="#f4efed"/><path d="m201.776 170.928c-6.664 0-12.066-5.402-12.066-12.066v-50.394c0-6.664 5.402-12.066 12.066-12.066 6.664 0 12.066 5.402 12.066 12.066v50.394c0 6.664-5.402 12.066-12.066 12.066z" fill="#f4efed"/><path d="m54.224 170.928c-6.664 0-12.066-5.402-12.066-12.066v-50.394c0-6.664 5.402-12.066 12.066-12.066 6.664 0 12.066 5.402 12.066 12.066v50.394c0 6.664-5.402 12.066-12.066 12.066z" fill="#f4efed"/><circle cx="105.16" cy="65.177" fill="#7bac51" r="6.742"/><circle cx="151.472" cy="65.177" fill="#7bac51" r="6.742"/><g fill="#690589"><path d="m180.744 87.213h-105.384c-1.104 0-2-.896-2-2v-.863c0-30.157 24.534-54.692 54.691-54.692h.001c30.157 0 54.691 24.535 54.691 54.692v.863c.001 1.104-.894 2-1.999 2zm-103.371-4h101.358c-.607-27.428-23.107-49.555-50.679-49.555s-50.072 22.127-50.679 49.555z"/><path d="m154.729 226.342c-7.53 0-13.656-6.126-13.656-13.656v-27.55h-25.994v27.55c0 7.53-6.126 13.656-13.656 13.656s-13.656-6.126-13.656-13.656v-27.55h-3.521c-6.001 0-10.884-4.882-10.884-10.884v-79.339c0-1.104.896-2 2-2h105.384c1.104 0 2 .896 2 2v79.339c0 6.001-4.883 10.884-10.884 10.884h-3.477v27.55c-.001 7.53-6.127 13.656-13.656 13.656zm-41.651-45.206h29.994c1.104 0 2 .896 2 2v29.55c0 5.324 4.332 9.656 9.656 9.656s9.655-4.332 9.655-9.656v-29.55c0-1.104.896-2 2-2h5.477c3.796 0 6.884-3.088 6.884-6.884v-77.339h-101.384v77.339c0 3.796 3.088 6.884 6.884 6.884h5.521c1.104 0 2 .896 2 2v29.55c0 5.324 4.332 9.656 9.656 9.656s9.656-4.332 9.656-9.656v-29.55c.001-1.105.897-2 2.001-2z"/><path d="m201.775 172.928c-7.756 0-14.065-6.31-14.065-14.066v-50.394c0-7.756 6.31-14.066 14.065-14.066s14.066 6.31 14.066 14.066v50.394c.001 7.756-6.31 14.066-14.066 14.066zm0-74.526c-5.55 0-10.065 4.516-10.065 10.066v50.394c0 5.55 4.516 10.066 10.065 10.066 5.551 0 10.066-4.516 10.066-10.066v-50.394c.001-5.55-4.515-10.066-10.066-10.066z"/><path d="m54.225 172.928c-7.756 0-14.066-6.31-14.066-14.066v-50.394c0-7.756 6.311-14.066 14.066-14.066s14.065 6.31 14.065 14.066v50.394c0 7.756-6.31 14.066-14.065 14.066zm0-74.526c-5.551 0-10.066 4.516-10.066 10.066v50.394c0 5.55 4.516 10.066 10.066 10.066s10.065-4.516 10.065-10.066v-50.394c0-5.55-4.516-10.066-10.065-10.066z"/><path d="m105.16 73.919c-4.82 0-8.741-3.921-8.741-8.742s3.921-8.742 8.741-8.742 8.741 3.921 8.741 8.742-3.921 8.742-8.741 8.742zm0-13.483c-2.614 0-4.741 2.127-4.741 4.742s2.127 4.742 4.741 4.742 4.741-2.127 4.741-4.742-2.127-4.742-4.741-4.742z"/><path d="m151.472 73.919c-4.82 0-8.741-3.921-8.741-8.742s3.921-8.742 8.741-8.742 8.742 3.921 8.742 8.742-3.922 8.742-8.742 8.742zm0-13.483c-2.614 0-4.741 2.127-4.741 4.742s2.127 4.742 4.741 4.742c2.615 0 4.742-2.127 4.742-4.742s-2.127-4.742-4.742-4.742z"/></g></svg>