<svg xmlns="http://www.w3.org/2000/svg" viewBox="0 0 69.64 65"><defs><style>.cls-1,.cls-2{fill:#eaeaea;}.cls-1{fill-rule:evenodd;}</style></defs><title>Asset 1</title><g id="Layer_2" data-name="Layer 2"><g id="Layer_1-2" data-name="Layer 1"><g id="U"><path class="cls-1" d="M38.63.61V39.24a17.28,17.28,0,0,1-.7,4.74,13.22,13.22,0,0,1-2.3,4.57A12.45,12.45,0,0,1,31.36,52a14.38,14.38,0,0,1-6.56,1.35A14.34,14.34,0,0,1,18.23,52,12.45,12.45,0,0,1,14,48.55,13.22,13.22,0,0,1,11.66,44a17.28,17.28,0,0,1-.7-4.74V.61H0v39a25.83,25.83,0,0,0,1.87,10,21.79,21.79,0,0,0,5.22,7.61A23.4,23.4,0,0,0,15,62.08a27.86,27.86,0,0,0,9.84,1.7,27.85,27.85,0,0,0,9.83-1.7,23,23,0,0,0,7.83-4.83,22.62,22.62,0,0,0,5.22-7.61,25.47,25.47,0,0,0,1.91-10V.61Z"/></g><g id="Rectangle_6" data-name="Rectangle 6"><path class="cls-1" d="M58.64,56s5.53,9,5.63,9,5.37-9,5.37-9Z"/></g><g id="Rectangle_6-2" data-name="Rectangle 6"><rect class="cls-2" x="58.64" y="12" width="11" height="41"/></g><g id="Rectangle_6-3" data-name="Rectangle 6"><rect class="cls-2" x="58.64" width="11" height="9"/></g></g></g></svg>