<svg xmlns="http://www.w3.org/2000/svg" viewBox="0 0 63.07 61.6"><defs><style>.cls-1,.cls-2{fill:#eaeaea;}.cls-1{fill-rule:evenodd;}</style></defs><title>Asset 7</title><g id="Layer_2" data-name="Layer 2"><g id="Layer_1-2" data-name="Layer 1"><g id="P"><path class="cls-1" d="M41.54,9.27a15,15,0,0,0-5-5.49A21.19,21.19,0,0,0,29.28.87,41.59,41.59,0,0,0,20.71,0H0V61.6H11V36.1h7.83a61.28,61.28,0,0,0,9.35-.69A22.36,22.36,0,0,0,36,32.75a14.24,14.24,0,0,0,5.39-5.52,19.08,19.08,0,0,0,2-9.39A17.7,17.7,0,0,0,41.54,9.27Zm-11,13.61a8.27,8.27,0,0,1-3.48,2.61,15.06,15.06,0,0,1-4.65,1.05c-1.69.11-3.31.17-4.88.17H11V9.4h7.83a39.72,39.72,0,0,1,4.53.26,13.14,13.14,0,0,1,4.26,1.17,8.11,8.11,0,0,1,3.13,2.61A7.71,7.71,0,0,1,31.93,18,7.77,7.77,0,0,1,30.58,22.88Z"/></g><g id="Rectangle_7" data-name="Rectangle 7"><rect class="cls-2" x="44.07" y="58.44" width="19" height="2.69"/></g><g id="Rectangle_7-2" data-name="Rectangle 7"><rect class="cls-2" x="44.07" y="38.44" width="19" height="2.69"/></g><g id="Rectangle_7-3" data-name="Rectangle 7"><rect class="cls-2" x="44.07" y="45.44" width="19" height="8.69"/></g></g></g></svg>