<svg xmlns="http://www.w3.org/2000/svg" viewBox="0 0 85.42 65.02"><defs><style>.cls-1,.cls-2{fill:#eaeaea;}.cls-1{fill-rule:evenodd;}</style></defs><title>Asset 3</title><g id="Layer_2" data-name="Layer 2"><g id="Layer_1-2" data-name="Layer 1"><g id="B"><path class="cls-1" d="M44.5,39.06a15,15,0,0,0-2.74-4.53,14.29,14.29,0,0,0-4.22-3.22,16.14,16.14,0,0,0-5.35-1.61v-.17a16.47,16.47,0,0,0,7.74-4.87,12.68,12.68,0,0,0,3-8.62,14.43,14.43,0,0,0-1.65-7.13,14.45,14.45,0,0,0-4.31-4.83,17.7,17.7,0,0,0-6.05-2.7A29,29,0,0,0,24,.56H0V62.15H22.18a41.61,41.61,0,0,0,8.57-.87,22.61,22.61,0,0,0,7.49-2.91A15.87,15.87,0,0,0,43.5,53a16.22,16.22,0,0,0,2-8.4A15,15,0,0,0,44.5,39.06ZM11,10H20c4.18,0,7.21.66,9.09,2a6.75,6.75,0,0,1,2.83,6,6.75,6.75,0,0,1-2.74,5.61Q26.45,25.61,21,25.61H11ZM33.23,48.54a8.69,8.69,0,0,1-3.3,2.74,13.64,13.64,0,0,1-4.4,1.22,42.28,42.28,0,0,1-4.48.26H11V35H21.49c4.46,0,7.76.64,9.87,1.91s3.18,3.54,3.18,6.79A8,8,0,0,1,33.23,48.54Z"/></g><g id="Rectangle_6" data-name="Rectangle 6"><path class="cls-1" d="M74.48,13.69c0,.32-11,0-11,0,0,14.75-11.06,23.4-11.06,23.4S69,65,69.2,65,85.42,37.09,85.42,37.09,74.58,27.81,74.48,13.69ZM68.91,42a3.91,3.91,0,1,1,3.94-3.9A3.92,3.92,0,0,1,68.91,42Z"/></g><g id="Rectangle_7" data-name="Rectangle 7"><rect class="cls-2" x="59.07" y="13" width="19" height="2.69"/></g><g id="Rectangle_7-2" data-name="Rectangle 7"><rect class="cls-2" x="59.07" width="19" height="8.69"/></g></g></g></svg>