<svg xmlns="http://www.w3.org/2000/svg" viewBox="0 0 84.67 63.43"><defs><style>.cls-1,.cls-2{fill:#eaeaea;}.cls-1{fill-rule:evenodd;}</style></defs><title>Asset 2</title><g id="Layer_2" data-name="Layer 2"><g id="Layer_1-2" data-name="Layer 1"><g id="U"><path class="cls-1" d="M38.63,0V38.63a17.28,17.28,0,0,1-.7,4.74,13.4,13.4,0,0,1-2.3,4.57,12.42,12.42,0,0,1-4.27,3.43,14.35,14.35,0,0,1-6.56,1.35,14.4,14.4,0,0,1-6.57-1.35A12.42,12.42,0,0,1,14,47.94a13.4,13.4,0,0,1-2.3-4.57,17.28,17.28,0,0,1-.7-4.74V0H0V39A25.74,25.74,0,0,0,1.87,49a21.83,21.83,0,0,0,5.22,7.62A23.73,23.73,0,0,0,15,61.47a27.86,27.86,0,0,0,9.84,1.69,27.84,27.84,0,0,0,9.83-1.69,23.35,23.35,0,0,0,7.83-4.83A22.66,22.66,0,0,0,47.68,49a25.38,25.38,0,0,0,1.91-10V0Z"/></g><g id="Ellipse_1" data-name="Ellipse 1"><circle class="cls-2" cx="64.17" cy="27.94" r="5.5" transform="translate(-1.31 3.23) rotate(-2.86)"/></g><g id="Ellipse_1-2" data-name="Ellipse 1"><path class="cls-1" d="M64.17,7.44a5.5,5.5,0,1,0,5.5,5.5A5.5,5.5,0,0,0,64.17,7.44Z"/></g><g id="Rectangle_6" data-name="Rectangle 6"><rect class="cls-2" x="58.67" y="52.43" width="11" height="11"/></g><g id="Rectangle_6-2" data-name="Rectangle 6"><rect class="cls-2" x="58.67" y="37.43" width="11" height="11"/></g><g id="Rectangle_6-3" data-name="Rectangle 6"><rect class="cls-2" x="73.67" y="52.43" width="11" height="11"/></g><g id="Rectangle_6-4" data-name="Rectangle 6"><rect class="cls-2" x="73.67" y="37.43" width="11" height="11"/></g></g></g></svg>