<?xml version="1.0" encoding="utf-8"?>
<!-- Svg Vector Icons : http://www.onlinewebfonts.com/icon -->
<!DOCTYPE svg PUBLIC "-//W3C//DTD SVG 1.1//EN" "http://www.w3.org/Graphics/SVG/1.1/DTD/svg11.dtd">
<svg version="1.1" xmlns="http://www.w3.org/2000/svg" xmlns:xlink="http://www.w3.org/1999/xlink" x="0px" y="0px" viewBox="0 0 1000 1000" enable-background="new 0 0 1000 1000" xml:space="preserve" width="74" height="74">
<metadata> Svg Vector Icons : http://www.onlinewebfonts.com/icon </metadata>
<g><g transform="translate(0.000000,512.000000) scale(0.100000,-0.100000)"><path fill="#e5e5e5" d="M2019.7,5005.7c-998.4-134.2-1788-941-1904.9-1945.2c-13.4-115-17.2-1151.8-13.4-3066.2l5.7-2893.8l51.7-191.6c93.9-352.6,224.2-611.3,452.3-893c293.2-362.2,716.7-622.8,1213.1-747.4l180.1-46h2999.2h2999.2l180.1,46c852.8,214.6,1456.5,818.3,1671.1,1671.1l46,180.1V118.9V3118l-46,180.1c-212.7,843.2-801.1,1443.1-1640.4,1665.4l-191.6,51.7l-2941.7,1.9C3462.8,5019.1,2084.9,5013.4,2019.7,5005.7z M3784.7,2625.5c231.9-749.3,1468-4827.4,1468-4844.7c0-13.4-92-19.2-291.3-15.3l-291.3,5.7l-216.6,709.1c-118.8,390.9-230,755-245.3,810.6l-30.7,99.7l-758.9-3.8l-760.8-5.7L2424.1-1420c-128.4-440.8-237.6-804.9-241.5-810.7c-5.8-3.8-134.2-5.8-287.5-3.8l-276,5.7l665,2261.4c366,1243.7,703.3,2384,747.4,2535.4l80.5,272.1h302.8h302.8L3784.7,2625.5z M7255.4,1412.4c320-90.1,567.3-285.5,699.5-553.8C8075.6,615.2,8089,521.3,8089-160.9V-755l-1019.5-51.7c-561.5-28.8-1032.9-51.7-1046.3-51.7c-21.1,0-24.9-55.6-19.2-281.7c7.6-310.5,36.4-413.9,145.6-528.9c243.4-258.7,814.5-247.2,1400.9,26.8c88.1,42.2,162.9,72.8,166.7,69c3.8-1.9,47.9-97.8,101.6-210.8l95.8-205.1l-99.7-57.5c-377.5-218.5-889.2-320-1335.7-270.2c-550,63.3-854.7,293.2-967.8,722.5c-23,92-28.7,277.9-28.7,1073.2c0,893.1,1.9,969.7,38.3,1107.7c113.1,442.7,442.7,739.7,939,845.1C6628.7,1468,7098.2,1456.5,7255.4,1412.4z"/><path fill="#e5e5e5" d="M3106.3,964l-299-1008l314.3-5.7c172.5-1.9,448.4-1.9,615.2,0l300.9,5.7L3729.2,956.3c-168.6,550-310.5,1004.2-316.2,1008C3407.2,1970.1,3269.2,1519.8,3106.3,964z"/><path fill="#e5e5e5" d="M6548.2,960.2c-120.7-28.7-297.1-132.2-375.6-224.2c-138-157.1-159.1-245.3-168.6-697.6l-7.7-398.6h72.8c113.1,0,1230.3,55.6,1364.5,69l120.7,11.5l-5.7,394.8c-5.8,446.5-21.1,505.9-157.2,642C7213.2,935.2,6831.8,1027.2,6548.2,960.2z"/></g></g>
</svg>