<!-- Generated by IcoMoon.io -->
<svg version="1.1" xmlns="http://www.w3.org/2000/svg" width="138" height="74" viewBox="0 0 2494 1024">
<title></title>
<g id="icomoon-ignore">
</g>
<path fill="#e5e5e5" d="M455.717 132.019c-29.229 34.588-75.996 61.869-122.763 57.971-5.846-46.767 17.050-96.457 43.844-127.147 29.229-35.562 80.381-60.894 121.789-62.843 4.872 48.716-14.127 96.457-42.87 132.019zM498.1 199.246c-67.715-3.897-125.686 38.485-157.838 38.485-32.639 0-81.842-36.537-135.429-35.562-69.663 0.974-134.455 40.434-170.017 103.277-73.073 125.686-18.999 311.779 51.638 414.082 34.588 50.664 75.996 106.2 130.558 104.251 51.638-1.949 72.099-33.614 134.455-33.614 62.843 0 80.868 33.614 135.429 32.639 56.51-0.974 92.072-50.664 126.66-101.328 39.46-57.484 55.536-113.507 56.51-116.43-0.974-0.974-109.123-42.382-110.097-167.094-0.974-104.251 85.252-153.941 89.149-156.864-48.716-72.099-124.712-79.893-151.018-81.842zM889.285 57.971v759.475h117.892v-259.654h163.197c149.069 0 253.808-102.303 253.808-250.398s-102.79-249.423-249.911-249.423h-284.986zM1007.177 157.351h135.916c102.303 0 160.761 54.561 160.761 150.531s-58.459 151.018-161.248 151.018h-135.429v-301.549zM1639.504 823.292c74.048 0 142.736-37.511 173.914-96.944h2.436v91.098h109.123v-378.032c0-109.61-87.688-180.247-222.63-180.247-125.199 0-217.758 71.612-221.168 170.017h106.2c8.769-46.767 52.126-77.458 111.559-77.458 72.099 0 112.533 33.614 112.533 95.482v41.895l-147.121 8.769c-136.891 8.282-210.938 64.304-210.938 161.735 0 98.405 76.483 163.684 186.093 163.684zM1671.169 733.168c-62.843 0-102.79-30.204-102.79-76.483 0-47.741 38.485-75.509 112.046-79.893l131.045-8.282v42.87c0 71.125-60.407 121.789-140.301 121.789zM2070.636 1024c114.969 0 169.043-43.844 216.297-176.837l207.041-580.689h-119.84l-138.839 448.67h-2.436l-138.839-448.67h-123.25l199.734 552.921-10.717 33.614c-18.025 56.997-47.254 78.919-99.38 78.919-9.256 0-27.281-0.974-34.588-1.949v91.098c6.82 1.949 36.049 2.923 44.818 2.923z"></path>
</svg>
