<svg enable-background="new 0 0 240 90" height="60" viewBox="0 0 64 64" width="60" xmlns="http://www.w3.org/2000/svg"><path d="m3.555554 63.690823v-9.275361h7.729467v-45.140096h-7.729467v-9.275366h30.608694c13.913044 0 22.570051 6.1835772 22.570051 17.314014 0 7.111108-4.328506 11.439614-9.89372 13.603862 8.038649 2.164253 13.603867 7.42029 13.603867 14.840579 0 11.748791-9.275366 18.241545-24.734304 18.241545h-32.154588zm18.241545-54.415457v17.314009h11.439614c8.657007 0 12.985508-3.091789 12.985508-8.657007 0-5.874395-4.637683-8.657002-13.294685-8.657002zm0 45.140096h12.985508c10.202896 0 15.149756-3.091788 15.149756-9.27536 0-6.183578-5.256037-9.275366-15.768115-9.275366h-12.367149z" fill="#e5e5e5" stroke-width="3.091788"/></svg>