<!-- Generated by IcoMoon.io -->
<svg version="1.1" xmlns="http://www.w3.org/2000/svg" width="120" height="55" viewBox="0 0 2553 1024">
<title></title>
<g id="icomoon-ignore">
</g>
<path fill="#e5e5e5" d="M330.767 223.943c-179.957 0-329.916 76.347-329.916 306.682 0 182.476 100.836 297.389 334.563 297.389 275.107 0 292.742-181.221 292.742-181.221h-133.302c0 0-28.581 97.581-167.572 97.581-113.204 0-194.625-76.473-194.625-183.66h509.439v-67.262c0-106.042-67.317-269.509-311.329-269.509zM326.12 309.907c107.759 0 181.221 66.015 181.221 164.958h-371.736c0-105.040 95.888-164.958 190.515-164.958z"></path>
<path fill="#e5e5e5" d="M642.002 0.901v711.44c0 40.384-2.882 97.087-2.882 97.087h127.142c0 0 4.564-40.725 4.564-77.944 0 0 62.817 98.273 233.619 98.273 179.862 0 302.036-124.872 302.036-303.778 0-166.433-112.22-300.293-301.745-300.293-177.477 0-232.626 95.838-232.626 95.838v-320.623zM971.917 313.682c122.14 0 199.808 90.649 199.808 212.296 0 130.444-89.704 215.781-198.937 215.781-130.36 0-200.68-101.785-200.68-214.62 0-105.14 63.1-213.458 199.808-213.458z"></path>
<path fill="#e5e5e5" d="M1622.456 223.943c-270.732 0-288.096 148.24-288.096 171.928h134.754c0 0 7.066-86.545 144.048-86.545 89.013 0 157.988 40.743 157.988 119.072v27.88h-157.988c-209.74 0-320.623 61.357-320.623 185.868 0 122.537 102.452 189.208 240.903 189.208 188.687 0 249.47-104.26 249.47-104.26 0 41.469 3.197 82.334 3.197 82.334h119.795c0 0-4.647-50.653-4.647-83.060v-280.109c0-183.664-148.144-222.316-278.802-222.316zM1771.151 539.919v37.174c0 48.485-29.918 169.024-206.052 169.024-96.45 0-137.804-48.136-137.804-103.97 0-101.573 139.261-102.227 343.856-102.227z"></path>
<path fill="#e5e5e5" d="M1828.695 247.2h151.599l217.565 435.877 217.067-435.877h137.327l-395.385 775.999h-144.048l114.093-216.32z"></path>
</svg>
