<!-- Generated by IcoMoon.io -->
<svg version="1.1" xmlns="http://www.w3.org/2000/svg" width="74px" height="80px" viewBox="0 0 1024 1024">
<title></title>
<g id="icomoon-ignore">
</g>
<path fill="#e5e5e5" d="M341.333 1024c94.208 0 170.667-76.459 170.667-170.667v-170.667h-170.667c-94.208 0-170.667 76.459-170.667 170.667s76.459 170.667 170.667 170.667z"></path>
<path fill="#e5e5e5" d="M170.666 512c0-94.208 76.459-170.667 170.667-170.667h170.667v341.333h-170.667c-94.208 0-170.667-76.459-170.667-170.667z"></path>
<path fill="#e5e5e5" d="M170.666 170.667c0-94.208 76.459-170.667 170.667-170.667h170.667v341.333h-170.667c-94.208 0-170.667-76.459-170.667-170.667z"></path>
<path fill="#e5e5e5" d="M512 0h170.667c94.208 0 170.667 76.459 170.667 170.667s-76.459 170.667-170.667 170.667h-170.667v-341.333z"></path>
<path fill="#e5e5e5" d="M853.333 512c0 94.208-76.459 170.667-170.667 170.667s-170.667-76.459-170.667-170.667 76.459-170.667 170.667-170.667 170.667 76.459 170.667 170.667z"></path>
</svg>
