<?xml version="1.0" ?><svg enable-background="new 0 0 224.1575 181.3085" id="invision" version="1.1" width="84" height="84" viewBox="0 0 224.1575 181.3085" xml:space="preserve" xmlns="http://www.w3.org/2000/svg" xmlns:xlink="http://www.w3.org/1999/xlink"><g><path fill="#e5e5e5" d="M223.6931,140.1249c-0.5116-0.9609-1.3944-1.6756-2.4452-1.9724l-13.0664-3.7072   c-1.8948-0.5352-3.9492,0.4104-4.754,2.2384c-2.422,5.508-7.9844,14.8592-12.6095,16.5c-1.0389,0.3712-2.4337,0.6092-2.9181,0.0976   c-0.1676-0.1836-4.0036-4.7108,6.2736-27.9728c13.8944-31.4432,6.4064-59.0272-3.3515-68.572   c-9.9181-9.7112-34.5585-11.6816-47.9221-3.834c-4.824,2.832-9.0428,6.078-12.4568,9.0584l1.6484-8.9412   c0.2188-1.1797-0.1055-2.3948-0.8828-3.3088c-0.7736-0.916-1.9688-1.4256-3.1172-1.416l-48.7228,0.8108   c-1.7692,0.0292-3.3124,1.2204-3.7852,2.9256l-7.4608,26.7736c-0.336,1.2048-0.0896,2.498,0.668,3.494   c0.754,0.996,1.9336,1.58,3.1836,1.58h15.9728c-6.9728,20.5468-16.8596,49.0392-19.0392,53.6291   c-3.4416,2.6953-15.3476,11.2657-20.0116,12.8085c-3.2343,1.0744-4.5743,1.2148-5.18,1.1564   c-0.1208-0.5236-0.2888-2.09,0.6332-5.6992c3.3165-12.9808,23.2148-92.508,23.2148-92.508   c0.3008-1.1952,0.0312-2.4608-0.7268-3.4316c-0.7576-0.9708-1.9216-1.5392-3.1524-1.5392H8.9663   c-1.9176,0-3.5664,1.3636-3.9296,3.248L0.0719,77.504c-0.1016,0.5353-0.0936,1.0625,0.0116,1.5645   c-0.0544,0.2616-0.082,0.5332-0.082,0.8104c0,2.2091,1.7892,4,4,4h14.75C14.83,99.332,4.0759,142.0117,3.3455,148.3829   c-0.6915,5.9804-0.7072,25.914,28.0936,31.164c15.3124,2.8124,28-4.2696,36.0352-10.8008l-1.0936,6.168   c-0.2072,1.164,0.1133,2.3632,0.8708,3.2696c0.762,0.9064,1.8828,1.4296,3.0665,1.4296h31.5c1.8243,0,3.4219-1.2384,3.8751-3.004   c0.16-0.6328,16.328-63.4724,22.1404-77.0348c3.4144-7.9592,12.5196-15.7816,20.7344-17.8088   c2.6484-0.6504,6.3712-0.9728,9.0664,1.2188c7.5508,6.1288,4.3752,16.3048,0.1448,27.0704   c-3.5432,9.0156-14.3752,39.6836-5.094,55.9296c4.7228,8.2696,14.59,14.074,25.75,15.1484   c1.2149,0.1172,2.422,0.1756,3.6172,0.1756c10.2657,0,19.7424-4.2692,26.426-12.0232   c11.1052-13.0236,15.3048-25.508,15.4764-26.0312C224.2987,142.2189,224.2007,141.0901,223.6931,140.1249z M202.4039,164.0781   c-7.8436,9.1056-17.9024,9.5859-23.2032,9.0939c-8.4844-0.8203-16.164-5.1991-19.57-11.1563   c-5.9807-10.4648-0.7228-32.9532,5.5936-49.0312c3.8048-9.6836,10.172-25.8848-2.5428-36.2108   c-2.8635-2.3244-6.3828-3.504-10.3595-3.504c-1.8009,0-3.6993,0.242-5.672,0.7284c-10.7265,2.6484-21.7341,12.08-26.1677,22.4276   c-5.3672,12.516-18.4064,62.25-21.762,75.1876H75.0915l2.4764-13.9608c0.3244-1.8165-0.6404-3.6172-2.332-4.3596   c-1.6716-0.7344-3.664-0.2304-4.7888,1.2384c-0.164,0.2108-16.3596,21-37.5704,17.1484   c-20.5976-3.754-22.3632-15.6328-21.586-22.3828c0.664-5.7696,12.1212-51.3516,16.4804-68.4296   c0.3048-1.1953,0.0432-2.4668-0.7148-3.4416c-0.7576-0.9764-1.9256-1.5468-3.16-1.5468H8.5291l3.746-19.584h46.2852   c-4.4023,17.5976-19.1484,76.4904-21.9608,87.502c-1.0744,4.1951-2.0704,10.172,1.6208,13.6096   c3.8672,3.6092,9.9417,1.5895,13.1956,0.5036c7.332-2.4296,22.9528-14.5192,23.0976-14.6364   c1.07-0.8828,2.5388-2.09,22.8008-62.1152c0.414-1.2208,0.2108-2.5648-0.5392-3.6116c-0.754-1.0469-1.9608-1.668-3.25-1.668   H77.2399l5.2461-18.824l40.8515-0.68l-3.1132,16.9004c-0.332,1.7992,0.6017,3.594,2.2657,4.3576   c1.6563,0.7636,3.6327,0.3028,4.7811-1.1212c0.0784-0.0997,8.0624-9.8944,19.6796-16.7108   c11.2308-6.5956,31.4144-4.0644,38.2776,2.6544c6.8084,6.662,14.2772,30.99,1.6248,59.6192c-8.4256,19.074-10,31.0584-4.82,36.6444   c2.6992,2.9024,6.8788,3.6328,11.4649,2.004c7.1871-2.5509,13.0543-12.4144,15.7419-17.6644l5.5392,1.5744   C212.822,148.9885,208.9159,156.4417,202.4039,164.0781z"/><path fill="#e5e5e5" d="M48.158,40c11.0271,0,20-8.9727,20-20c0-11.0271-8.9729-20-20-20c-11.0273,0-20,8.9729-20,20   C28.158,31.0273,37.1307,40,48.158,40z M48.158,8c6.6171,0,12,5.3829,12,12c0,6.6173-5.3829,12-12,12c-6.6173,0-12-5.3827-12-12   C36.158,13.3829,41.5407,8,48.158,8z"/></g></svg>