<!-- Generated by IcoMoon.io -->
<svg version="1.1" xmlns="http://www.w3.org/2000/svg" width="78" height="78" viewBox="0 0 1024 1024">
<title></title>
<g id="icomoon-ignore">
</g>
<path fill="#e5e5e5" d="M1024 512c0 282.77-229.23 512-512 512s-512-229.23-512-512c0-282.77 229.23-512 512-512s512 229.23 512 512z"></path>
<path fill="#fff" d="M627.712 505.856c40.96 14.336 62.464 38.912 62.464 74.752 0 23.552-8.192 40.96-25.6 55.296-17.408 13.312-40.96 21.504-72.704 21.504-29.696 0-57.344-8.192-82.944-21.504-3.072-2.048-5.12-5.12-5.12-9.216 1.024-6.144 3.072-13.312 6.144-20.48 3.072-6.144 5.12-11.264 8.192-16.384 3.072-4.096 7.168-5.12 12.288-3.072 22.528 10.24 40.96 16.384 58.368 16.384 8.192 0 15.36-1.024 20.48-4.096s7.168-7.168 7.168-11.264c0-9.216-7.168-16.384-21.504-20.48l-25.6-9.216c-38.912-14.336-58.368-36.864-58.368-69.632 0-23.552 8.192-41.984 24.576-55.296s37.888-25.6 65.536-25.6c13.312 0 28.672 2.048 45.056 6.144 14.336 3.072 25.6 10.24 35.84 16.384 3.072 2.048 5.12 5.12 5.12 9.216 0 7.168-2.048 14.336-5.12 22.528-3.072 7.168-6.144 13.312-10.24 17.408-3.072 3.072-7.168 4.096-10.24 2.048-23.552-10.24-43.008-15.36-59.392-15.36-6.144 0-11.264 1.024-14.336 4.096s-5.12 6.144-5.12 10.24c0 7.168 6.144 13.312 17.408 17.408l27.648 8.192z"></path>
<path fill="#fff" d="M818.176 542.72c-13.312 11.264-20.48 27.648-20.48 50.176v80.896c0 26.624-8.192 47.104-26.624 61.44s-39.936 20.48-64.512 21.504h-14.336v-33.792c0-4.096 2.048-7.168 6.144-8.192 9.216-3.072 13.312-7.168 17.408-11.264 9.216-8.192 16.384-22.528 16.384-40.96v-65.536c0-22.528 2.048-39.936 10.24-52.224 6.144-9.216 16.384-17.408 30.72-25.6 6.144-3.072 6.144-12.288 0-16.384-17.408-10.24-28.672-22.528-35.84-37.888-5.12-11.264-5.12-26.624-5.12-46.080v-59.392c0-19.456-6.144-33.792-14.336-40.96-4.096-4.096-9.216-8.192-18.432-10.24-4.096-1.024-6.144-5.12-6.144-9.216v-21.504c0-5.12 4.096-9.216 9.216-9.216 11.264 0 19.456 0 27.648 0 15.36 0 28.672 8.192 39.936 17.408 12.288 10.24 21.504 22.528 26.624 39.936 3.072 9.216 3.072 18.432 3.072 27.648v68.608c0 24.576 7.168 43.008 19.456 54.272 6.144 6.144 14.336 11.264 27.648 16.384 4.096 1.024 6.144 5.12 6.144 8.192v17.408c0 4.096-2.048 7.168-6.144 9.216-14.336 4.096-22.528 9.216-28.672 15.36v0z"></path>
<path fill="#fff" d="M315.392 268.288v0c-5.12 0-9.216 0-13.312 0-15.36 0-28.672 8.192-39.936 17.408-12.288 10.24-23.552 22.528-26.624 39.936-2.048 10.24-1.024 18.432-1.024 27.648v68.608c0 24.576-9.216 41.984-21.504 54.272-6.144 6.144-18.432 11.264-32.768 16.384-4.096 2.048-6.144 5.12-6.144 9.216v17.408c0 4.096 2.048 7.168 6.144 9.216 12.288 4.096 23.552 9.216 30.72 15.36 13.312 11.264 22.528 27.648 22.528 50.176v80.896c0 26.624 6.144 47.104 24.576 61.44s39.936 20.48 64.512 21.504h7.168c5.12 0 9.216-4.096 9.216-9.216v-24.576c0-4.096-2.048-7.168-6.144-8.192-9.216-3.072-15.36-7.168-19.456-11.264-9.216-8.192-14.336-22.528-14.336-40.96v-65.536c0-22.528-4.096-39.936-12.288-52.224-6.144-9.216-16.384-17.408-30.72-25.6-6.144-3.072-6.144-12.288 0-16.384 17.408-10.24 28.672-22.528 35.84-37.888 5.12-11.264 7.168-26.624 7.168-46.080v-59.392c0-19.456 4.096-33.792 12.288-40.96 4.096-4.096 11.264-7.168 21.504-10.24 1.024 0 2.048 0 3.072 0h6.144c5.12 0 9.216-4.096 9.216-9.216v-21.504c0-5.12-4.096-9.216-9.216-9.216l-26.624-1.024z"></path>
<path fill="#fff" d="M481.28 594.944h-12.288c-13.312 0-18.432-7.168-18.432-21.504v-265.216c0-16.384-5.12-27.648-10.24-33.792-6.144-6.144-16.384-6.144-30.72-6.144h-22.528c-5.12 0-9.216 4.096-9.216 9.216v309.248c0 22.528 5.12 37.888 14.336 49.152 9.216 10.24 23.552 15.36 45.056 15.36 13.312 0 27.648-1.024 43.008-3.072 4.096-1.024 7.168-4.096 8.192-8.192 0-3.072 0-7.168 0-12.288-2.048-12.288-4.096-22.528-7.168-32.768v0z"></path>
</svg>
