<!-- Generated by IcoMoon.io -->
<svg version="1.1" xmlns="http://www.w3.org/2000/svg" width="76" height="76" viewBox="0 0 1024 1024">
<title></title>
<g id="icomoon-ignore">
</g>
<path fill="#e5e5e5" d="M1024 512c0 282.77-229.23 512-512 512s-512-229.23-512-512c0-282.77 229.23-512 512-512s512 229.23 512 512z"></path>
<path fill="#fff" d="M787.456 284.672c-6.144-24.576-23.552-45.056-50.176-59.392-52.224-27.648-136.192-28.672-212.992-1.024-46.080 16.384-133.12 53.248-198.656 113.664-65.536 61.44-75.776 115.712-70.656 137.216 11.264 59.392 73.728 101.376 122.88 136.192 13.312 9.216 25.6 17.408 34.816 25.6-27.648 14.336-102.4 56.32-122.88 100.352-15.36 34.816-8.192 60.416-2.048 71.68 6.144 13.312 16.384 23.552 26.624 26.624s21.504 4.096 32.768 4.096c44.032 0 87.040-23.552 113.664-63.488s28.672-93.184 16.384-125.952c17.408-4.096 35.84-4.096 56.32-2.048 39.936 5.12 59.392 20.48 68.608 32.768 10.24 13.312 12.288 26.624 11.264 34.816-2.048 15.36-14.336 24.576-20.48 28.672-5.12 3.072-9.216 6.144-8.192 12.288 2.048 8.192 10.24 7.168 13.312 7.168 9.216-2.048 41.984-18.432 44.032-55.296 1.024-22.528-8.192-45.056-25.6-63.488-22.528-23.552-56.32-35.84-95.232-34.816-28.672 0-48.128 3.072-63.488 8.192 0 0-1.024-1.024-1.024-1.024-14.336-15.36-33.792-29.696-51.2-44.032-40.96-30.72-78.848-60.416-76.8-104.448 3.072-55.296 57.344-109.568 162.816-161.792 93.184-46.080 168.96-48.128 208.896-33.792 16.384 6.144 27.648 14.336 31.744 23.552 8.192 17.408 5.12 39.936-9.216 64.512-23.552 40.96-82.944 92.16-174.080 102.4-55.296 6.144-78.848-18.432-79.872-19.456-6.144-7.168-10.24-11.264-17.408-7.168-8.192 4.096-4.096 15.36-2.048 19.456 4.096 11.264 21.504 30.72 51.2 40.96 23.552 8.192 83.968 13.312 158.72-15.36 86.016-34.816 145.408-126.976 128-197.632zM434.176 720.896c-1.024 2.048-1.024 4.096-2.048 6.144s-2.048 4.096-2.048 6.144c-4.096 9.216-10.24 18.432-18.432 26.624-23.552 25.6-55.296 32.768-65.536 26.624-3.072-2.048-4.096-5.12-5.12-9.216-2.048-12.288 5.12-36.864 26.624-58.368 25.6-26.624 61.44-46.080 69.632-50.176 3.072 18.432 2.048 35.84-3.072 52.224z"></path>
</svg>
