<!-- Generated by IcoMoon.io -->
<svg version="1.1" xmlns="http://www.w3.org/2000/svg" width="90" height="90" viewBox="0 0 1024 1024">
<title></title>
<g id="icomoon-ignore">
</g>
<path fill="#efefef" d="M620.878 346.698c-72.516-8.046-459.545-6.060-516.075-4.076l-104.803 477.831c159.243-80.666 298.318-149.211 455.575-223.817 197.486-94.667 334.576-118.909 362.788-118.909 18.182-1.986 8.046-10.031-1.986-12.12-110.863-24.137-378.984 100.833-378.984 100.833l-58.41-179.409 382.955 1.986c-22.152-32.183-64.47-32.183-141.061-42.318v0 0zM161.228 203.547c116.924 26.227 455.575 100.833 526.106 116.924 82.651 18.182 94.772 46.394 94.772 46.394s90.697-10.031 108.878 22.152c22.152 40.333-34.272 118.909-34.272 118.909l-796.211 312.424h826.409l137.091-616.802h-862.772zM763.924 389.016c0 0-4.076 22.152-84.637 28.212-8.046 1.986-10.031 6.060 0 6.060s147.121-4.076 161.227-1.986c16.092 0 14.106 10.031 12.12 18.182-1.986 10.031-12.12 36.258-14.106 42.318-4.076 6.060 1.986 6.060 6.060 1.986s28.212-52.454 28.212-64.47c1.986-12.12-1.986-24.137-22.152-28.212-18.182-4.076-86.726-2.090-86.726-2.090v0z"></path>
</svg>
