<!-- Generated by IcoMoon.io -->
<svg version="1.1" xmlns="http://www.w3.org/2000/svg" width="74" height="74" viewBox="0 0 1024 1024">
<title></title>
<g id="icomoon-ignore">
</g>
<path fill="#e5e5e5" d="M945.167 789.061l-414.93 234.939v-183l258.639-142.515 156.398 90.313zM973.565 763.355v-490.887l-151.753 87.779v315.381l151.753 87.568zM78.833 789.061l414.983 234.939v-183l-258.639-142.515-156.345 90.576zM50.435 763.355v-490.887l151.753 87.779v315.381zM68.275 240.798l425.541-240.798v176.666l-274.895 151.225-150.644-87.198zM955.777 240.798l-425.541-240.798v176.666l274.843 151.066 150.697-87.039z"></path>
<path fill="#e5e5e5" d="M493.815 799.405l-255.155-140.351v-277.852l255.155 147.266zM530.289 799.405l255.155-140.246v-277.958l-255.208 147.266zM255.816 349.11l256.211-140.773 256.264 140.773-256.052 147.794z"></path>
</svg>
