<!-- Generated by IcoMoon.io -->
<svg version="1.1" xmlns="http://www.w3.org/2000/svg" width="110" height="110" viewBox="0 0 1024 1024">
<title></title>
<g id="icomoon-ignore">
</g>
<path fill="#efefef" d="M95.032 207.23h833.518c52.749 0 95.45 42.701 95.45 95.45v318.167c0 52.749-42.701 95.45-95.45 95.45h-298.91l41.027 100.474-180.434-100.474h-394.779c-52.749 0-95.45-42.701-95.45-95.45v-318.167c-0.419-52.33 42.283-95.45 95.032-95.45v0z"></path>
<path fill="#fff" d="M58.31 294.228c5.828-7.909 14.569-12.072 26.224-12.904 21.229-1.665 33.301 8.325 36.215 29.971 12.904 86.998 27.057 160.676 42.042 221.034l91.161-173.58c8.325-15.818 18.732-24.143 31.22-24.976 18.315-1.249 29.554 10.407 34.133 34.966 10.407 55.363 23.727 102.4 39.545 142.361 10.823-105.73 29.138-181.906 54.946-228.943 6.244-11.655 15.402-17.483 27.473-18.315 9.574-0.833 18.315 2.081 26.224 8.325s12.072 14.153 12.904 23.727c0.416 7.493-0.833 13.737-4.163 19.98-16.234 29.971-29.554 80.338-40.377 150.27-10.407 67.85-14.153 120.715-11.655 158.595 0.833 10.407-0.833 19.564-4.995 27.473-4.995 9.158-12.488 14.153-22.062 14.985-10.823 0.833-22.062-4.163-32.885-15.402-38.712-39.545-69.515-98.654-91.993-177.327-27.057 53.281-47.037 93.242-59.941 119.883-24.559 47.037-45.372 71.18-62.855 72.429-11.239 0.833-20.813-8.741-29.138-28.722-21.229-54.53-44.124-159.844-68.683-315.941-1.665-10.823 0.833-20.397 6.66-27.889zM952.853 359.581c-14.985-26.224-37.047-42.042-66.602-48.286-7.909-1.665-15.402-2.498-22.478-2.498-39.961 0-72.429 20.813-97.821 62.439-21.646 35.382-32.468 74.511-32.468 117.385 0 32.052 6.66 59.525 19.98 82.42 14.985 26.224 37.047 42.042 66.602 48.286 7.909 1.665 15.402 2.498 22.478 2.498 40.377 0 72.846-20.813 97.821-62.439 21.646-35.798 32.468-74.927 32.468-117.802 0.416-32.468-6.66-59.525-19.98-82.003zM900.404 474.885c-5.828 27.473-16.234 47.87-31.636 61.607-12.072 10.823-23.311 15.402-33.717 13.32-9.99-2.081-18.315-10.823-24.559-27.057-4.995-12.904-7.493-25.808-7.493-37.88 0-10.407 0.833-20.813 2.914-30.387 3.746-17.067 10.823-33.717 22.062-49.535 13.737-20.397 28.306-28.722 43.291-25.808 9.99 2.081 18.315 10.823 24.559 27.057 4.995 12.904 7.493 25.808 7.493 37.88 0 10.823-0.833 21.229-2.914 30.803zM692.274 359.581c-14.985-26.224-37.463-42.042-66.602-48.286-7.909-1.665-15.402-2.498-22.478-2.498-39.961 0-72.429 20.813-97.821 62.439-21.646 35.382-32.468 74.511-32.468 117.385 0 32.052 6.66 59.525 19.98 82.42 14.985 26.224 37.047 42.042 66.602 48.286 7.909 1.665 15.402 2.498 22.478 2.498 40.377 0 72.846-20.813 97.821-62.439 21.646-35.798 32.468-74.927 32.468-117.802 0-32.468-6.66-59.525-19.98-82.003zM639.409 474.885c-5.828 27.473-16.234 47.87-31.636 61.607-12.072 10.823-23.311 15.402-33.717 13.32-9.99-2.081-18.315-10.823-24.559-27.057-4.995-12.904-7.493-25.808-7.493-37.88 0-10.407 0.833-20.813 2.914-30.387 3.746-17.067 10.823-33.717 22.062-49.535 13.737-20.397 28.306-28.722 43.291-25.808 9.99 2.081 18.315 10.823 24.559 27.057 4.995 12.904 7.493 25.808 7.493 37.88 0.416 10.823-0.833 21.229-2.914 30.803v0 0z"></path>
</svg>
