<!-- Generated by IcoMoon.io -->
<svg version="1.1" xmlns="http://www.w3.org/2000/svg" width="104" height="104" viewBox="0 0 1024 1024">
<title></title>
<g id="icomoon-ignore">
</g>
<path fill="#e5e5e5" d="M981.807 203.343c-1.651 0.616-40.125 19.237-85.421 41.158l-82.735 40.125-32.277-11.159c-99.286-34.127-212.837-50.469-309.427-44.889-114.594 6.823-218.019 32.476-308.204 76.738-78.597 38.474-127.207 80.457-150.988 130.728-34.127 71.973 1.452 155.335 92.045 215.521 67.020 44.471 145.618 72.192 259.167 91.22l7.649 1.244v33.719c0 30.198 0.418 34.336 3.929 38.682l3.929 4.963h132.587c124.312 0 132.587-0.209 136.099-3.719 3.103-3.103 3.929-8.694 4.754-39.090l1.035-35.579 26.886-4.556c38.055-6.614 67.637-13.855 102.797-25.026l30.406-9.519 73.018 34.743c40.125 19.237 78.597 37.439 85.63 40.751 10.961 5.172 13.448 5.58 19.028 3.511 3.719-1.244 7.649-3.929 8.683-5.998 1.244-2.477 2.069-43.437 2.069-106.319 0-97.625 0.209-102.599 3.929-109.213 2.278-3.731 7.033-15.715 10.752-26.478 6.029-17.366 6.854-22.33 6.854-42.392 0-25.652-2.894-38.474-14.483-61.43l-7.033-14.064v-102.181c0-94.323-0.209-102.39-3.521-106.319-3.918-4.754-12.194-7.241-17.157-5.172zM971.462 311.521c0 36.404-0.418 66.184-1.244 66.184-0.627 0-7.45-5.59-15.308-12.413-19.853-16.959-47.992-35.37-77.365-50.887l-25.015-13.019 19.654-9.31c10.752-4.963 36.823-17.586 57.919-27.92 21.097-10.136 38.881-18.62 39.926-18.818 0.804-0.010 1.432 29.78 1.432 66.184zM595.005 264.981c191.53 23.165 358.244 105.284 390.72 192.366 4.963 13.239 5.382 16.342 1.86 14.89-80.667-36.195-149.964-59.779-226.911-76.946-236.002-52.538-469.526-34.127-689.813 53.99-18.192 7.231-33.291 13.030-33.698 12.612-0.418-0.418 3.103-8.485 7.857-17.784 10.136-20.48 35.987-48.608 61.848-67.637 80.258-58.744 210.767-101.972 345.424-114.594 28.547-2.686 110.247-0.826 142.713 3.103zM572.257 400.463c140.655 9.717 280.473 44.471 393.615 97.625 12.204 5.789 22.131 11.17 22.131 11.996 0 2.069-57.919 25.026-80.248 31.849-64.742 20.282-133.622 31.66-217.601 36.414-57.919 3.312-226.493 2.696-267.86-1.035-87.291-7.649-168.993-22.956-252.344-47.575-35.161-10.345-84.595-27.303-104.459-35.778l-8.892-3.719 23.584-9.717c111.689-45.505 228.562-71.983 357.628-80.667 23.375-1.671 107.353-1.254 134.447 0.606zM59.712 526.844c75.494 29.989 168.167 55.432 256.063 69.915 78.19 12.82 130.31 16.75 229.597 16.75 151.198 0 232.898-6.614 314.4-25.026 27.512-6.415 82.735-23.165 100.321-30.825 11.578-4.963 13.646-2.278 5.998 7.857-58.535 77.564-189.054 131.961-360.732 150.789-39.926 4.347-141.688 4.754-180.987 0.826-152.859-15.099-271.79-58.118-339.635-123.069-10.543-10.136-23.782-25.235-29.373-33.51-11.588-16.959-22.131-42.193-17.795-42.193 0.418 0 10.553 3.731 22.142 8.485zM971.462 676.6c0 35.788-0.418 65.16-1.244 65.16-0.627 0-18.829-8.485-40.751-18.818-21.923-10.553-47.575-22.549-57.093-27.094l-17.586-8.066 23.375-12.413c27.92-14.681 60.814-36.823 77.772-52.329 6.823-6.207 13.030-11.379 14.064-11.588 0.836-0.010 1.463 29.361 1.463 65.149zM509.177 751.059c36.404 0 76.738-0.826 89.559-1.651l23.165-1.86v41.776h-219.252v-41.357l20.272 1.452c10.961 1.024 49.852 1.641 86.256 1.641z"></path>
</svg>
