<!-- Generated by IcoMoon.io -->
<svg version="1.1" xmlns="http://www.w3.org/2000/svg" width="144" height="74" viewBox="0 0 1946 1024">
<title></title>
<g id="icomoon-ignore">
</g>
<path fill="#e5e5e5" d="M1946.016 266.704c0-146.449-132.911-265.15-197.631-265.15s-197.631 118.7-197.631 265.15c0 70.761 20.674 134.975 54.36 182.514 11.411 23.959 29.222 49.245 47.644 75.372 21.201 30.086 42.823 60.993 55.077 90.593-11.327 4.4-20.274 13.411-24.738 24.675 10.59 2.421 22.233 4.442 34.612 5.79 33.264 3.684 62.866 2.063 79.815-3.389-10.716 8.737-42.887 13.516-80.51 10.99-13.179-0.884-25.496-2.569-36.402-4.821-0.442 2.379-0.673 4.821-0.673 7.327v54.487c0 24.107 19.559 30.548 43.644 30.548h60.676c24.065 0 43.624-6.463 43.624-30.548v-54.487c0-20.716-14.485-37.959-33.812-42.402 7.58-17.643 16.421-34.907 25.075-51.855l8.548-16.822 6.148-12.337c4.821-9.601 12.737-25.538 20.969-41.665h-0.779c55.266-46.971 91.983-129.691 91.983-223.969zM1822.999 526.948l-6.148 12.274-8.548 16.78c-9.327 18.233-18.864 36.928-26.928 56.129h-26.886v-80.299h-12.19v80.299h-18.738c-1.263 0-2.443 0.295-3.684 0.4-12.674-31.518-35.16-63.645-57.224-94.931-5.727-8.19-11.453-16.296-16.969-24.274 29.939 24.443 65.098 38.528 102.679 38.528 30.444 0 59.266-9.285 85.036-25.77-3.221 6.421-6.653 13.348-10.4 20.865zM1820.41 506.295c0 0 61.751-67.287 80.299-162.786-23.138 28.17-63.308 46.865-109.079 46.865-71.667 0-129.817-45.75-129.817-102.195 0-56.466 58.15-102.237 129.817-102.237 44.528 0 83.835 17.685 107.205 44.592-37.602-155.944-207.168-194.999-207.168-194.999s10.569-13.58 33.559-20.148c19.495-5.579 29.033-4.169 41.455-0.484 14.064 4.148 163.734 87.499 163.734 246.812 0.021 159.292-110.005 244.58-110.005 244.58z"></path>
<path fill="#e5e5e5" d="M107.084 708.914c28.507 0 75.351 8.148 75.351 41.918 0 17.096-11.411 29.728-26.064 29.728-16.274 0-20.78-10.59-45.623-10.59-32.17 0-47.244 24.465-47.244 53.792 0 29.307 15.475 53.729 43.56 53.729 27.307 0 39.918-10.99 49.287-10.99 14.653 0 26.064 14.653 26.064 28.107 0 31.77-50.087 43.981-75.351 43.981-64.34 0-107.079-50.887-107.079-114.805 0-63.961 42.76-114.869 107.1-114.869z"></path>
<path fill="#e5e5e5" d="M197.068 745.969c0-18.338 13.032-32.991 31.749-32.991 17.116 0 27.707 10.969 31.77 20.359 10.569-12.632 26.044-24.422 43.981-24.422 16.254 0 32.549 13.032 32.549 32.97 0 21.98-16.674 27.265-39.918 34.192-27.685 8.169-36.633 15.517-36.633 48.044v77.393c0 18.317-13.032 32.97-31.77 32.97-18.717 0-31.749-14.653-31.749-32.97v-155.544z"></path>
<path fill="#e5e5e5" d="M546.053 901.513c0 18.317-13.032 32.97-31.77 32.97-15.453 0-25.264-10.59-29.728-20.359-14.253 17.516-30.548 24.422-54.55 24.422-55.371 0-98.131-50.887-98.131-114.805 0-63.94 42.739-114.847 98.131-114.847 24.023 0 40.297 6.905 54.55 24.422 4.464-9.79 14.274-20.359 29.728-20.359 18.738 0 31.77 14.653 31.77 32.991v155.566zM395.372 823.763c0 29.307 15.475 53.729 43.56 53.729s43.56-24.422 43.56-53.729c0-29.328-15.475-53.792-43.56-53.792s-43.56 24.465-43.56 53.792z"></path>
<path fill="#e5e5e5" d="M648.669 774.034h-55.792c-20.359 0-33.391-8.968-33.391-29.328s13.032-29.307 33.391-29.307h122.174c11.79 0 17.916 1.621 24.023 7.727 4.042 4.042 5.685 9.348 5.685 15.075 0 5.705-2.842 10.969-8.126 18.317l-87.141 116.89h67.183c20.359 0 33.391 8.948 33.391 29.328 0 20.338-13.032 29.328-33.391 29.328h-128.701c-11.811 0-15.453-1.242-21.18-4.506-8.126-5.284-9.369-13.832-9.369-17.916 0-4.884 0.421-10.59 9.79-23.601l81.456-112.006z"></path>
<path fill="#e5e5e5" d="M815.603 911.282l-54.171-129.080c-7.327-17.116-13.432-32.17-13.432-39.496 0-18.759 15.053-29.728 30.949-29.728 15.475 0 26.464 8.148 32.57 24.023l37.475 96.931 35.433-86.32c8.148-19.579 17.096-34.634 34.612-34.634 19.559 0 32.591 12.632 32.591 32.149 0 9.369-4.484 20.38-7.748 27.665l-94.068 219.526c-7.327 16.696-12.612 30.128-34.612 30.128-22.801 0-31.349-17.896-31.349-28.507 0-10.99 3.263-18.338 10.59-35.012l21.159-47.644z"></path>
<path fill="#e5e5e5" d="M1026.14 844.521c0 13.432 10.169 35.433 50.908 35.433 31.328 0 50.487-19.959 65.14-19.959 14.274 0 26.486 10.99 26.486 27.265 0 30.97-51.728 51.329-99.752 51.329-68.424 0-111.184-50.887-111.184-114.805 0-61.056 46.002-114.847 111.184-114.847 62.697 0 103.016 52.508 103.016 107.9 0 22.401-10.611 27.707-30.949 27.707h-114.847zM1108.396 800.941c0-14.274-16.274-38.234-41.117-38.234s-41.117 23.98-41.117 38.234h82.236z"></path>
<path fill="#e5e5e5" d="M1398.326 910.862c0 81.057-52.929 111.584-115.248 111.584-32.991 0-94.868-12.632-94.868-47.224 0-14.253 13.832-27.685 26.444-27.685 18.317 0 30.17 18.759 67.203 18.759 39.518 0 52.929-20.801 52.929-56.214h-0.779c-13.874 19.537-36.675 24.422-57.855 24.422-61.498 0-92.025-53.35-92.025-110.742 0-63.94 42.76-114.847 98.152-114.847 24.023 0 40.297 6.905 54.571 24.422 4.484-9.79 14.253-20.359 29.706-20.359 18.738 0 31.77 14.653 31.77 32.991v164.892zM1291.247 769.97c-28.107 0-43.581 24.465-43.581 53.792 0 30.928 15.475 54.55 43.581 54.55 28.085 0 43.539-23.623 43.539-54.55 0.021-29.328-15.453-53.792-43.539-53.792z"></path>
<path fill="#e5e5e5" d="M1632.064 910.862c0 81.057-52.929 111.584-115.248 111.584-32.97 0-94.888-12.632-94.888-47.224 0-14.253 13.853-27.685 26.486-27.685 18.317 0 30.128 18.759 67.183 18.759 39.496 0 52.95-20.801 52.95-56.214h-0.821c-13.832 19.537-36.633 24.422-57.813 24.422-61.498 0-92.047-53.35-92.047-110.742 0-63.94 42.76-114.847 98.152-114.847 24.023 0 40.318 6.905 54.571 24.422 4.484-9.79 14.253-20.359 29.728-20.359 18.717 0 31.749 14.653 31.749 32.991v164.892zM1524.985 769.97c-28.127 0-43.581 24.465-43.581 53.792 0 30.928 15.453 54.55 43.581 54.55 28.085 0 43.56-23.623 43.56-54.55 0-29.328-15.475-53.792-43.56-53.792z"></path>
<path fill="#e5e5e5" d="M1838.516 260.598c-11.6 0-21.875-6.043-36.655-6.043-26.38 0-38.907 15.728-38.907 31.665 0 15.327 13.79 31.243 38.907 31.243 11.6 0 28.907-6.443 34.401-6.443 10.969 0 19.938 6.232 19.938 13.58 0 15.937-39.897 21.327-56.592 21.327-49.876 0-82.973-27.349-82.973-59.687 0-31.454 34.086-60.087 82.973-60.087 18.296 0 56.592 4.484 56.592 19.601 0 6.463-6.695 14.842-17.685 14.842z"></path>
<path fill="#e5e5e5" d="M1680.634 916.777h-6.4c-2.758 0-3.958-2.105-3.958-4.148 0-2.148 1.474-4.19 3.958-4.19h21.58c2.505 0 3.958 2.063 3.958 4.19 0 2.063-1.179 4.148-3.958 4.148h-6.358v30.423c0 3.053-1.874 4.758-4.4 4.758-2.547 0-4.421-1.705-4.421-4.758v-30.423z"></path>
<path fill="#e5e5e5" d="M1705.983 912.735c0.4-2.19 2.632-4.717 5.748-4.717 2.927 0 5.201 2.19 5.832 4.379l6.905 24.023h0.147l6.905-24.023c0.673-2.19 2.947-4.379 5.852-4.379 3.095 0 5.368 2.505 5.748 4.717l5.453 33.791c0.042 0.379 0.042 0.715 0.042 1.032 0 2.674-1.874 4.379-4.231 4.379-2.969 0-4.126-1.39-4.548-4.253l-3.453-24.675h-0.105l-7.032 25.391c-0.442 1.453-1.516 3.537-4.695 3.537s-4.295-2.085-4.695-3.537l-6.989-25.391h-0.169l-3.453 24.675c-0.421 2.863-1.6 4.253-4.548 4.253-2.358 0-4.19-1.705-4.19-4.379 0-0.316 0-0.653 0.021-1.032l5.453-33.791z"></path>
</svg>
