<!-- Generated by IcoMoon.io -->
<svg version="1.1" xmlns="http://www.w3.org/2000/svg" width="78" height="78" viewBox="0 0 1024 1024">
<title></title>
<g id="icomoon-ignore">
</g>
<path fill="#e5e5e5" d="M894.363 620.685h-115.233c0 5.238 0 7.857 0 13.095 0 172.849-141.422 274.987-269.749 274.987s-269.749-102.138-269.749-274.987c0-5.238 0-7.857 0-13.095h-115.233c0 5.238 0 7.857 0 13.095 0 235.703 193.8 390.22 387.601 390.22s387.601-154.517 387.601-390.22c-5.238-2.619-5.238-7.857-5.238-13.095z"></path>
<path fill="#e5e5e5" d="M506.762 144.041l81.187 112.614h146.66c-68.092-89.043-141.422-180.706-227.847-256.655-86.425 78.568-159.754 167.611-227.847 256.655h146.66l81.187-112.614z"></path>
<path fill="#e5e5e5" d="M352.246 439.98c0 43.391-35.176 78.568-78.568 78.568s-78.568-35.176-78.568-78.568c0-43.391 35.176-78.568 78.568-78.568s78.568 35.176 78.568 78.568z"></path>
<path fill="#e5e5e5" d="M585.33 439.98c0 43.391-35.176 78.568-78.568 78.568s-78.568-35.176-78.568-78.568c0-43.391 35.176-78.568 78.568-78.568s78.568 35.176 78.568 78.568z"></path>
<path fill="#e5e5e5" d="M818.414 439.98c0 43.391-35.176 78.568-78.568 78.568s-78.568-35.176-78.568-78.568c0-43.391 35.176-78.568 78.568-78.568s78.568 35.176 78.568 78.568z"></path>
</svg>
