<!-- Generated by IcoMoon.io -->
<svg version="1.1" xmlns="http://www.w3.org/2000/svg" width="74" height="74" viewBox="0 0 1024 1024">
<title></title>
<g id="icomoon-ignore">
</g>
<path fill="#e5e5e5" d="M832.001 345.396v-143.897c25.407-14.771 42.662-41.984 42.662-73.497 0-47.142-38.195-85.337-85.325-85.337s-85.337 38.195-85.337 85.337c0 31.514 17.255 58.726 42.662 73.497v143.897c-32.41 5.965-62.541 18.419-88.819 36.236l-404.135-230.925c1.331-7.399 2.291-14.937 2.291-22.707 0-70.707-57.331-128-128-128s-128 57.292-128 128 57.331 128 128 128c31.91 0 60.659-12.084 83.085-31.372l384.166 219.495c-25.587 37.581-40.589 82.944-40.589 131.879 0 49.37 15.335 95.181 41.37 132.966l-147.532 147.571c-28.416-7.539-59.916-0.499-82.164 21.799-33.331 33.331-33.331 87.321 0 120.665 33.331 33.331 87.321 33.331 120.665 0 22.285-22.285 29.337-53.709 21.836-82.125l147.532-147.584c37.785 26.047 83.584 41.37 132.966 41.37 129.625 0 234.662-105.036 234.662-234.662 0-115.046-82.79-210.521-192-230.605zM789.338 725.339c-82.496 0-149.337-66.841-149.337-149.337 0-82.484 66.841-149.337 149.337-149.337s149.325 66.855 149.325 149.337c0 82.496-66.829 149.337-149.325 149.337z"></path>
</svg>
