<!-- Generated by IcoMoon.io -->
<svg version="1.1" xmlns="http://www.w3.org/2000/svg" width="74" height="74" viewBox="0 0 1024 1024">
<g id="icomoon-ignore">
</g>
<path fill="#e5e5e5" d="M675.481 1.797c-185.039 0-337.74 145.516-346.723 328.758-183.242 8.982-328.758 159.888-328.758 344.926 0 190.428 156.295 346.723 346.723 346.723h537.151c77.249 0 140.126-62.877 140.126-138.33v-535.354c0-192.225-156.295-346.723-348.519-346.723v0zM303.607 869.502c-71.86-17.965-129.347-75.453-147.312-145.516v0c-1.796-8.982-1.796-12.575-3.593-21.558h150.905v167.074zM486.849 874.892h-141.923v-326.961h141.923v326.961zM679.074 874.892h-141.923v-596.435h141.923v596.435zM871.298 846.148c0 16.168-12.575 30.54-28.744 30.54h-114.975v-483.256h143.719v452.716z"></path>
</svg>
