<!-- Generated by IcoMoon.io -->
<svg version="1.1" xmlns="http://www.w3.org/2000/svg" width="77" height="77" viewBox="0 0 1024 1024">
<title></title>
<g id="icomoon-ignore">
</g>
<path fill="#e5e5e5" d="M998.999 667.558c-6.181-14.423-20.604-24.724-37.087-28.845-6.181-26.785-14.423-39.147-14.423-41.207 2.060-4.121 6.181-6.181 6.181-8.241 24.724-28.845 8.241-72.113-32.966-82.415-22.664-22.664-43.268-32.966-61.811-41.207-16.483-8.241-10.302-4.121-24.724-12.362-4.121-20.604-6.181-65.932-12.362-98.898-6.181-28.845-18.543-51.509-35.026-63.871-8.241-16.483-16.483-30.905-28.845-43.268 57.69-86.535 72.113-173.071 30.905-218.399-18.543-20.604-45.328-28.845-78.294-28.845-47.388 0-103.018 18.543-160.708 53.569 0 0-37.087-30.905-39.147-30.905-160.708-125.682-616.048 432.675-455.339 554.237l41.207 30.905c-26.785 72.113 10.302 158.648 86.535 185.433 16.483 6.181 35.026 8.241 53.569 8.241 0 0 121.562 222.519 379.106 222.519 296.691 0 372.925-290.511 372.925-292.571-2.060 2.060 22.664-35.026 10.302-63.871zM65.656 539.815c-30.905-55.63 24.724-166.89 65.932-232.821 98.898-158.648 265.787-284.33 342.019-265.787l20.604-8.241c0 0 55.63 47.388 57.69 47.388 39.147-22.664 88.596-47.388 133.924-51.509-28.845 6.181-61.811 20.604-103.018 45.328 0 0-96.837 65.932-154.527 123.622-30.905 30.905-158.648 185.433-158.648 183.372 22.664-43.268 39.147-65.932 76.233-111.26 20.604-26.785 43.268-51.509 65.932-76.233 10.302-10.302 20.604-20.604 32.966-30.905 8.241-6.181 14.423-14.423 22.664-20.604 4.121-2.060 6.181-6.181 10.302-8.241 0 0 0 0 0 0l-74.173-61.811 4.121 26.785 53.569 47.388c0 0-47.388 32.966-72.113 53.569-96.837 82.415-189.554 208.097-224.58 329.657h2.060c-16.483 10.302-35.026 24.724-49.449 45.328-6.181 2.060-45.328-24.724-51.509-35.026zM224.304 768.515c-57.69 0-103.018-49.449-103.018-109.199s47.388-109.199 103.018-109.199c14.423 0 28.845 4.121 41.207 8.241 0 0 22.664 10.302 28.845 63.871 0 0 0 0 0 0s0 0 0 0c6.181-16.483 10.302-30.905 10.302-30.905 8.241 22.664 10.302 47.388 10.302 70.052v0 0c6.181-8.241 12.362-22.664 12.362-22.664 12.362 70.052-37.087 129.803-103.018 129.803zM352.046 383.227v0c0 0 45.328-84.475 142.165-142.165-8.241-2.060-24.724 2.060-28.845 2.060 18.543-14.423 51.509-24.724 74.173-30.905-6.181-4.121-22.664-6.181-30.905-6.181-2.060 0-2.060 0-4.121 0 20.604-12.362 61.811-18.543 96.837-12.362-4.121-6.181-14.423-10.302-22.664-12.362 0 0-4.121 0-4.121 0s2.060 0 2.060 0c22.664-4.121 47.388 0 67.992 8.241-2.060-6.181-8.241-12.362-12.362-16.483 0 0-2.060-2.060-2.060-2.060 20.604 4.121 41.207 14.423 57.69 24.724-2.060-4.121-6.181-10.302-10.302-14.423 20.604 6.181 43.268 20.604 53.569 41.207v0c0 0 0 2.060 0 2.060s0 0 0 0c-39.147-28.845-150.407-20.604-261.666 51.509-49.449 32.966-88.596 67.992-117.441 107.139zM957.792 719.067c-2.060 2.060-14.423 78.294-96.837 142.165-100.958 80.354-234.882 72.113-286.391 26.785-26.785-24.724-39.147-61.811-39.147-61.811s-2.060 20.604-4.121 28.845c-20.604-35.026-18.543-76.233-18.543-76.233s-10.302 20.604-16.483 30.905c-14.423-39.147-8.241-78.294-8.241-78.294l-12.362 18.543c0 0-6.181-43.268 8.241-78.294 14.423-39.147 43.268-65.932 49.449-70.052-20.604-6.181-45.328-26.785-45.328-26.785s10.302 0 16.483 0c0 0-43.268-30.905-51.509-78.294 6.181 8.241 18.543 16.483 18.543 16.483-4.121-12.362-6.181-39.147-2.060-67.992v0c8.241-51.509 51.509-86.535 98.898-86.535 51.509 0 86.535 10.302 129.803-28.845 8.241-8.241 16.483-16.483 28.845-18.543 2.060 0 4.121-2.060 12.362-2.060 6.181 0 14.423 2.060 20.604 6.181 22.664 14.423 28.845 51.509 30.905 78.294 10.302 98.898 6.181 82.415 45.328 103.018 18.543 10.302 41.207 18.543 65.932 45.328 0 0 0 0 0 0s0 0 0 0c20.604 0 30.905 16.483 22.664 28.845-70.052 82.415-166.89 121.562-274.029 125.682-4.121 0-14.423 0-14.423 0-43.268 2.060-57.69 57.69-30.905 90.656 16.483 20.604 51.509 28.845 78.294 28.845v0c117.441 2.060 236.942-80.354 257.546-127.743 0 0 2.060-4.121 2.060-4.121-4.121 6.181-119.501 113.32-259.606 109.199 0 0-14.423 0-28.845-4.121-18.543-4.121-32.966-12.362-39.147-30.905 12.362 2.060 26.785 4.121 43.268 4.121 100.958 0 173.071-45.328 166.89-47.388 0 0 0 0-2.060 0-12.362 2.060-133.924 49.449-210.157 24.724 0-2.060 0-4.121 2.060-6.181 6.181-22.664 18.543-20.604 39.147-20.604v0c70.052-2.060 125.682-20.604 168.95-39.147 45.328-20.604 80.354-49.449 92.716-63.871 16.483 26.785 16.483 61.811 16.483 61.811s6.181-2.060 14.423-2.060c24.724 2.060 28.845 24.724 10.302 49.449z"></path>
<path fill="#e5e5e5" d="M469.486 78.294l14.423 4.121-12.362-41.207-6.181 20.604z"></path>
<path fill="#e5e5e5" d="M531.297 92.717l-22.664-18.543 8.241 28.845c4.121-4.121 8.241-6.181 14.423-10.302z"></path>
<path fill="#e5e5e5" d="M739.394 461.521c12.362 0 22.664 2.060 32.966 6.181 0-28.845-16.483-59.751-28.845-55.63v0c0 0 0 0 0 0v0c-8.241 2.060-8.241 14.423-8.241 22.664 0 10.302 0 18.543 4.121 26.785z"></path>
<path fill="#e5e5e5" d="M506.573 109.2l-47.388-14.423 30.905 26.785c6.181-4.121 10.302-8.241 16.483-12.362z"></path>
<path fill="#e5e5e5" d="M628.135 502.728c10.302 4.121 16.483 6.181 16.483 4.121 0 0 0-4.121-2.060-6.181-6.181-8.241-16.483-16.483-26.785-18.543-22.664-8.241-49.449-4.121-67.992 12.362-10.302 8.241-14.423 16.483-10.302 16.483 2.060 0 8.241-2.060 16.483-4.121 32.966-14.423 49.449-14.423 74.173-4.121z"></path>
<path fill="#e5e5e5" d="M630.195 529.513c6.181 0 10.302 0 10.302 0 2.060-4.121-12.362-14.423-35.026-12.362-2.060 0-4.121 2.060-8.241 2.060 0 0-2.060 0-2.060 0-4.121 2.060-10.302 4.121-14.423 8.241s-6.181 8.241-4.121 10.302c2.060 2.060 4.121 0 10.302-2.060 18.543-6.181 30.905-6.181 43.268-6.181z"></path>
<path fill="#e5e5e5" d="M160.433 665.497v0 0z"></path>
<path fill="#e5e5e5" d="M261.39 622.23c6.181 8.241 4.121 12.362 6.181 14.423 0 0 2.060 2.060 4.121 0 4.121-2.060 4.121-6.181 4.121-10.302v0c0 0 0 0 0 0v0c0-8.241-4.121-18.543-10.302-24.724 0 0 0 0 0 0v0c-8.241-8.241-18.543-16.483-32.966-18.543-12.362-2.060-24.724 0-26.785 2.060v0c-2.060 0-4.121 0-6.181 2.060-32.966 12.362-47.388 45.328-41.207 76.233 2.060 8.241 6.181 16.483 10.302 22.664v0c0 0 0 0 0 0v0c6.181 8.241 14.423 6.181 10.302 0 0-2.060-4.121-10.302-6.181-22.664 0-14.423 2.060-28.845 12.362-41.207 6.181-8.241 14.423-12.362 16.483-12.362v0c2.060 0 2.060-2.060 4.121-2.060 0 0 2.060 0 2.060 0 4.121-2.060 2.060 0 6.181-2.060v0c24.724-4.121 41.207 6.181 47.388 16.483z"></path>
<path fill="#e5e5e5" d="M251.088 646.954c-2.060-2.060-4.121-4.121-4.121-6.181 0-4.121 0-6.181 4.121-8.241 2.060-2.060 4.121-2.060 4.121-4.121s-8.241-4.121-16.483 2.060c-6.181 6.181-6.181 18.543 2.060 26.785 10.302 10.302 24.724 12.362 26.785 24.724 0 2.060 0 4.121 0 6.181s0 6.181 0 6.181c-2.060 12.362-14.423 24.724-35.026 20.604-4.121 0-6.181 0-6.181 0-2.060 2.060 6.181 12.362 22.664 10.302 22.664 0 39.147-22.664 35.026-47.388-2.060-20.604-24.724-24.724-32.966-30.905z"></path>
<path fill="#e5e5e5" d="M773.542 493.183c5.622 0.877 9.184 7.968 7.956 15.838s-6.78 13.541-12.402 12.663c-5.622-0.877-9.184-7.968-7.956-15.838s6.78-13.541 12.402-12.663z"></path>
<path fill="#e5e5e5" d="M728.781 512.872c7.984 4.375 11.795 12.775 8.514 18.763s-12.414 7.295-20.397 2.919c-7.984-4.375-11.795-12.775-8.514-18.763s12.414-7.295 20.397-2.919z"></path>
</svg>
