<!-- Generated by IcoMoon.io -->
<svg version="1.1" xmlns="http://www.w3.org/2000/svg" width="94" height="74" viewBox="0 0 1549 1024">
<title></title>
<g id="icomoon-ignore">
</g>
<path fill="#e5e5e5" d="M1039.546 250.925l-90.975-8.369c-56.572-5.198-106.592 37.168-111.717 94.633l-44.994 504.84c102.605 15.716 200.769 35.118 293.14 57.58l47.685-535.205c5.125-57.464-36.57-108.254-93.139-113.479z"></path>
<path fill="#e5e5e5" d="M629.053 357.46l-90.99-8.37c-56.569-5.198-106.589 37.179-111.715 94.631l-31.914 358.181c53.849 2.676 108.569 6.518 163.997 11.615 44.583 4.099 88.585 8.912 131.959 14.378l31.815-356.956c5.125-57.464-36.555-108.269-93.153-113.478z"></path>
<path fill="#e5e5e5" d="M224.257 475.323l-90.979-8.37c-56.569-5.21-106.589 37.167-111.7 94.634l-21.579 242.079c94.66-5.991 194.774-7.886 298.761-5.324l18.663-209.553c5.096-57.467-36.599-108.284-93.167-113.467z"></path>
<path fill="#e5e5e5" d="M1455.433 8.818l-90.975-8.37c-56.569-5.198-106.592 37.168-111.729 94.634l-73.88 828.94c106.49 29.567 203.76 63.248 289.353 99.961l80.369-901.712c5.155-57.437-36.57-108.243-93.139-113.452z"></path>
</svg>
