<!-- Generated by IcoMoon.io -->
<svg version="1.1" xmlns="http://www.w3.org/2000/svg" width="164" height="44" viewBox="0 0 4767 1024">
<title></title>
<g id="icomoon-ignore">
</g>
<path fill="#e5e5e5" d="M831.331 465.324l9.907-99.069c-1.881-45.512-12.7-86.583-32.151-124.32l-52.048 71.974c7.197 23.976 10.093 49.851 7.933 76.881-9.907 123.78-122.365 224.125-251.21 224.125-30.242 0-58.715-5.531-84.413-15.596l311.061-324.953 131.359-133.24-93.594 49.479c-62.048-78.101-161.75-124.469-276.089-119.898-196.685 7.868-363.79 167.877-373.24 357.402-9.451 189.516 142.3 336.778 338.976 328.92 173.464-6.927 323.92-132.244 363.51-291.713zM1184.637 543.657c5.335-53.128 0.912-91.713-13.212-115.68-13.78-23.948-38.045-35.94-72.709-35.968-15.242 0-30.708 2.439-46.397 7.291-15.391 4.851-30.857 12.142-46.434 21.872l-27.449 274.618c8.659 3.883 18.259 6.657 28.827 8.287 10.838 1.62 23.715 2.402 38.65 2.402 41.48 0 73.603-13.426 96.387-40.326 22.756-27.225 36.872-68.063 42.337-122.495zM1568.436 831.385c-69.358 0-118.473-14.218-147.374-42.765-28.603-28.52-39.646-75.177-33.147-139.991l25.521-255.168h-62.142c10.791 41.117 13.352 90.056 7.691 146.797-8.706 87.16-37.942 157.486-87.672 210.95-49.423 53.464-106.536 80.177-171.322 80.177-27.235 0-50.596-3.073-70.047-9.218-19.488-6.173-39.907-15.717-61.285-28.678l-22.756 227.467h-170.112l30.801-308.175c-90.838 121.629-234.562 201.629-390.382 201.629-249.246 0-434.898-204.702-414.711-457.263 20.223-252.542 238.641-457.253 487.886-457.253 126.35 0 236.369 52.598 311.499 137.402l143.361-54.916-84.693 141.21c7.308 13.959 14.678 30.887 20.921 48.35l0.913 2.926h139.106l-5.689 56.872c27.076-21.387 54.246-38.734 81.499-52.020 27.253-13.277 57.858-19.907 91.909-19.926 28.268 0 53.166 5.028 74.693 15.056h162.365l15.596-156.052h170.14l-15.624 156.052h163.818l-11.862 118.603h-163.808l-19.358 193.454c-0.971 7.439-2.577 24.692-3.988 42l-0.528 8.056c-1.117 14.274 0.196 27.076 3.929 38.399 3.408 11.359 10.438 20.419 21.108 27.225 11.024 6.499 27.533 9.73 49.572 9.73 9.069 0 21.080-1.955 36.071-5.847 15.289-3.883 26.006-7.439 32.179-10.689h14.572l-11.983 120.056c-16.512 4.427-36.848 8.346-57.597 10.935l-2.338 0.238c-21.034 2.924-46.611 4.376-76.723 4.376zM298.371 390.78c9.916-123.771 122.393-224.143 251.229-224.143 64.59 0 121.043 25.242 160.028 65.987l-382.048 282.495c-21.89-35.568-32.868-78.333-29.209-124.32zM1911.862 820.687h-170.112l54.581-545.838h170.112l-54.581 545.838zM1979.088 197.084h-179.842l13.259-132.682h179.842l-13.259 132.682zM2603.147 820.687l27.281-272.663c2.691-26.909 4.469-49.553 5.335-68.045 0.857-18.464-0.54-33.547-4.246-45.205-3.687-11.685-10.466-20.093-20.317-25.27-9.497-5.493-23.464-8.259-41.937-8.259-12.97 0-26.052 2.924-39.292 8.743-13.175 5.512-27.747 13.454-43.669 23.818l-38.715 386.899h-171.071l27.281-272.663c2.635-26.564 4.236-49.069 4.795-67.551 0.912-18.799-0.484-34.013-4.19-45.689-3.687-11.685-10.493-20.093-20.326-25.27-9.497-5.493-23.315-8.259-41.443-8.259-13.948 0-27.886 3.259-41.806 9.73-16.058 7.539-29.55 15.157-42.423 23.638l1.259-0.779-38.687 386.899h-170.112l54.581-545.838h170.14l-6.052 60.27c30.233-23.65 58.315-42.142 84.274-55.419 25.959-13.287 54.33-19.916 85.102-19.935 33.38 0 61.899 7.942 85.596 23.818 23.696 15.903 40.587 39.544 50.745 70.959 35.754-30.447 68.873-53.79 99.348-69.991 30.81-16.536 61.108-24.786 90.95-24.786 25.27 0 47.542 4.060 66.825 12.142 19.274 8.101 35.065 20.261 47.393 36.443 13.454 17.505 22.719 38.399 27.747 62.7 5.391 23.976 6.127 55.419 2.235 94.302l-35.521 355.307-171.080-0.047zM3046.201 197.084h-179.832l13.277-132.682h179.842l-13.287 132.682zM3487.812 690.426c-20.112-42.142-27.123-93.538-21.052-154.218 8.911-89.097 41.62-160.233 98.138-213.389 56.508-53.128 130.764-79.702 222.812-79.721 83.575 0 144.199 22.533 181.816 67.561 37.616 45.056 52.216 109.534 43.836 193.445l-6.127 61.238h-372.812c-0.903 25.27 2.328 46.527 9.683 63.669 7.393 16.862 18.035 30.298 31.946 40.335 13.594 10.056 29.87 17.346 48.845 21.862 19.022 4.246 40.028 6.331 63.035 6.331 0.016 0 0.034 0 0.052 0 20.863 0 41.188-2.307 60.733-6.679l-1.847 0.347c19.562-4.516 37.644-10.363 54.255-17.505 16.068-6.75 29.337-13.423 42.11-20.854l-1.729 0.929c12.7-7.114 23.063-13.436 31.061-18.976h17.98l-14.041 140.475c-31.974 11.553-45.173 16.801-58.322 22.149l18.378-6.609c-11.825 4.544-27.998 9.246-48.566 14.097-18.948 4.842-38.454 8.585-58.473 11.173-14.777 2.207-31.965 3.557-51.527 4.115l-969.153 0.41 54.6-545.838h170.112l-41.294 412.98 271.518-285.158-202.644 0.736 14.73-125.14 412.123-3.417-11.024 110.326-291.527 305.242 302.374 0.084zM3849.823 462.81c2.616-35.959-3.073-63.343-17.067-82.132-13.659-18.799-36.723-28.166-69.106-28.194-33.035 0-59.963 9.879-80.736 29.637-20.447 19.786-33.343 46.657-38.678 80.689h205.587zM4767.225 260.11l-350.205 746.099h-182.756l103.976-213.361-115.94-420.168-43.324 433.277h-170.14l75.633-756.304h170.112l-21.052 210.466h136.555l80.484 342.197 141.648-342.197h175.009z"></path>
</svg>
