<?xml version="1.0" encoding="utf-8"?>
<!-- Generator: Adobe Illustrator 22.1.0, SVG Export Plug-In . SVG Version: 6.00 Build 0)  -->
<svg version="1.1" id="Layer_1" xmlns="http://www.w3.org/2000/svg" xmlns:xlink="http://www.w3.org/1999/xlink" x="0px" y="0px"
	 viewBox="0 0 65.4 64.3" style="enable-background:new 0 0 65.4 64.3;" xml:space="preserve">
<style type="text/css">
	.st0{fill:#EBEBEB;}
</style>
<path id="C" class="st0" d="M53.8,9.7C47.7,2.7,40.6,0,32.3,0C13.5,0,0,12.8,0,32.4c0,19.1,13.5,31.9,32.3,31.9
	c9,0,17.3-3.3,22.8-10.9l-9-6.4c-4.1,5.2-8.8,7.4-13.7,7.4c-12.6,0-21-9.7-21-22.7c0-12.2,8.4-21.9,21-21.9c4.2,0,8.4,1.3,12.9,6.1
	L53.8,9.7z"/>
<g id="Layer_2_1_">
	<g id="Capa_1">
		<path class="st0" d="M62.3,25c-2.5-1.4-5.6-0.8-7.5,1.4c-2.1-2.5-5.9-2.9-8.4-0.8c-1.4,1.1-2.2,2.8-2.2,4.6c0,0.6,0.1,1.2,0.3,1.8
			c1,4.6,10.3,10.4,10.3,10.4s9.2-5.8,10.3-10.4c0.2-0.6,0.3-1.2,0.3-1.8C65.4,28.1,64.2,26.1,62.3,25z"/>
	</g>
</g>
</svg>
